G04 #@! TF.FileFunction,Soldermask,Bot*
%FSLAX46Y46*%
G04 Gerber Fmt 4.6, Leading zero omitted, Abs format (unit mm)*
G04 Created by KiCad (PCBNEW 4.0.6-e0-6349~53~ubuntu16.04.1) date Sun Apr  2 13:26:43 2017*
%MOMM*%
%LPD*%
G01*
G04 APERTURE LIST*
%ADD10C,0.100000*%
%ADD11C,1.924000*%
%ADD12C,2.000000*%
%ADD13O,2.000000X2.000000*%
%ADD14R,2.000000X2.000000*%
%ADD15R,2.100000X2.100000*%
%ADD16O,2.100000X2.100000*%
G04 APERTURE END LIST*
D10*
D11*
X87630000Y-97790000D03*
X90170000Y-97790000D03*
X92710000Y-97790000D03*
X95250000Y-97790000D03*
X97790000Y-97790000D03*
X100330000Y-97790000D03*
X102870000Y-97790000D03*
X105410000Y-97790000D03*
X107950000Y-97790000D03*
X110490000Y-97790000D03*
X113030000Y-97790000D03*
X115570000Y-97790000D03*
X118110000Y-97790000D03*
X120650000Y-97790000D03*
X123190000Y-97790000D03*
X125730000Y-97790000D03*
X128270000Y-97790000D03*
X130810000Y-97790000D03*
X133350000Y-97790000D03*
X135890000Y-97790000D03*
X135890000Y-82550000D03*
X133350000Y-82550000D03*
X130810000Y-82550000D03*
X128270000Y-82550000D03*
X125730000Y-82550000D03*
X123190000Y-82550000D03*
X120650000Y-82550000D03*
X118110000Y-82550000D03*
X115570000Y-82550000D03*
X113030000Y-82550000D03*
X110490000Y-82550000D03*
X107950000Y-82550000D03*
X105410000Y-82550000D03*
X102870000Y-82550000D03*
X100330000Y-82550000D03*
X97790000Y-82550000D03*
X95250000Y-82550000D03*
X92710000Y-82550000D03*
X90170000Y-82550000D03*
X87630000Y-82550000D03*
D12*
X107315000Y-58420000D03*
X107315000Y-63420000D03*
X137160000Y-68580000D03*
D13*
X137160000Y-71120000D03*
D12*
X137160000Y-73660000D03*
D13*
X137160000Y-76200000D03*
D14*
X109220000Y-68580000D03*
D12*
X109220000Y-71080000D03*
D15*
X130810000Y-58420000D03*
D16*
X128270000Y-58420000D03*
D15*
X134620000Y-58420000D03*
D16*
X137160000Y-58420000D03*
D14*
X137160000Y-64770000D03*
D13*
X137160000Y-62230000D03*
D15*
X128270000Y-104140000D03*
D16*
X125730000Y-104140000D03*
X123190000Y-104140000D03*
X120650000Y-104140000D03*
X118110000Y-104140000D03*
X115570000Y-104140000D03*
X113030000Y-104140000D03*
X110490000Y-104140000D03*
X107950000Y-104140000D03*
X105410000Y-104140000D03*
X102870000Y-104140000D03*
X100330000Y-104140000D03*
X97790000Y-104140000D03*
X95250000Y-104140000D03*
X92710000Y-104140000D03*
X90170000Y-104140000D03*
X87630000Y-104140000D03*
D15*
X135890000Y-104140000D03*
D16*
X133350000Y-104140000D03*
X130810000Y-104140000D03*
D15*
X87630000Y-76200000D03*
D16*
X90170000Y-76200000D03*
X92710000Y-76200000D03*
D15*
X132080000Y-76200000D03*
X95250000Y-76200000D03*
D16*
X97790000Y-76200000D03*
X100330000Y-76200000D03*
X102870000Y-76200000D03*
X105410000Y-76200000D03*
X107950000Y-76200000D03*
X110490000Y-76200000D03*
X113030000Y-76200000D03*
X115570000Y-76200000D03*
X118110000Y-76200000D03*
X120650000Y-76200000D03*
X123190000Y-76200000D03*
X125730000Y-76200000D03*
X128270000Y-76200000D03*
D15*
X118110000Y-67310000D03*
D16*
X120650000Y-67310000D03*
X123190000Y-67310000D03*
X125730000Y-67310000D03*
X128270000Y-67310000D03*
D15*
X118110000Y-63500000D03*
D16*
X120650000Y-63500000D03*
X123190000Y-63500000D03*
X125730000Y-63500000D03*
X128270000Y-63500000D03*
D15*
X115570000Y-69850000D03*
X118110000Y-69850000D03*
X120650000Y-69850000D03*
X123190000Y-69850000D03*
X125730000Y-69850000D03*
X128270000Y-69850000D03*
X130810000Y-72390000D03*
X133350000Y-72390000D03*
X133350000Y-69850000D03*
X133350000Y-67310000D03*
X133350000Y-63500000D03*
X115570000Y-63500000D03*
X113030000Y-63500000D03*
X113030000Y-60960000D03*
X118110000Y-60960000D03*
X120650000Y-60960000D03*
X123190000Y-60960000D03*
X125730000Y-60960000D03*
X123190000Y-58420000D03*
X120650000Y-58420000D03*
X118110000Y-58420000D03*
X115570000Y-58420000D03*
X130810000Y-69850000D03*
X128270000Y-72390000D03*
X130810000Y-67310000D03*
X128270000Y-60960000D03*
X125730000Y-58420000D03*
X130810000Y-63500000D03*
X125730000Y-72390000D03*
X123190000Y-72390000D03*
X120650000Y-72390000D03*
X118110000Y-72390000D03*
X115570000Y-72390000D03*
X115570000Y-60960000D03*
X113030000Y-58420000D03*
X113030000Y-72390000D03*
X113030000Y-69850000D03*
X113030000Y-67310000D03*
X115570000Y-67310000D03*
X110490000Y-63500000D03*
X110490000Y-60960000D03*
X110490000Y-58420000D03*
M02*
