M48
;DRILL file {KiCad 4.0.6-e0-6349~53~ubuntu16.04.1} date Sun Apr  2 16:21:18 2017
;FORMAT={-:-/ absolute / inch / decimal}
FMAT,2
INCH,TZ
T1C0.016
T2C0.031
T3C0.039
T4C0.040
%
G90
G05
M72
T1
X3.5Y-2.525
X3.6Y-2.8
X3.7Y-2.8
X3.85Y-2.65
X3.85Y-2.85
X3.9Y-2.7
X3.95Y-2.8
X3.975Y-2.65
X3.975Y-2.775
X4.05Y-3.
X4.15Y-2.575
X4.15Y-2.75
X4.15Y-3.
X4.225Y-2.875
X4.25Y-3.
X4.325Y-2.875
X4.35Y-3.
X4.45Y-3.
X5.15Y-3.55
X5.25Y-3.65
X5.25Y-3.775
T2
X4.225Y-2.3
X4.225Y-2.4969
X4.3Y-2.7
X4.3Y-2.7984
X5.4Y-2.45
X5.4Y-2.55
X5.4Y-2.7
X5.4Y-2.8
X5.4Y-2.9
X5.4Y-3.
T3
X3.45Y-3.
X3.45Y-4.1
X3.55Y-3.
X3.55Y-4.1
X3.65Y-3.
X3.65Y-4.1
X3.75Y-3.
X3.75Y-4.1
X3.85Y-3.
X3.85Y-4.1
X3.95Y-3.
X3.95Y-4.1
X4.05Y-3.
X4.05Y-4.1
X4.15Y-3.
X4.15Y-4.1
X4.25Y-3.
X4.25Y-4.1
X4.35Y-2.3
X4.35Y-2.4
X4.35Y-2.5
X4.35Y-3.
X4.35Y-4.1
X4.45Y-2.3
X4.45Y-2.4
X4.45Y-2.5
X4.45Y-2.65
X4.45Y-2.75
X4.45Y-2.85
X4.45Y-3.
X4.45Y-4.1
X4.55Y-2.3
X4.55Y-2.4
X4.55Y-2.5
X4.55Y-2.65
X4.55Y-2.75
X4.55Y-2.85
X4.55Y-3.
X4.55Y-4.1
X4.65Y-2.3
X4.65Y-2.4
X4.65Y-2.5
X4.65Y-2.65
X4.65Y-2.75
X4.65Y-2.85
X4.65Y-3.
X4.65Y-4.1
X4.75Y-2.3
X4.75Y-2.4
X4.75Y-2.5
X4.75Y-2.65
X4.75Y-2.75
X4.75Y-2.85
X4.75Y-3.
X4.75Y-4.1
X4.85Y-2.3
X4.85Y-2.4
X4.85Y-2.5
X4.85Y-2.65
X4.85Y-2.75
X4.85Y-2.85
X4.85Y-3.
X4.85Y-4.1
X4.95Y-2.3
X4.95Y-2.4
X4.95Y-2.5
X4.95Y-2.65
X4.95Y-2.75
X4.95Y-2.85
X4.95Y-3.
X4.95Y-4.1
X5.05Y-2.3
X5.05Y-2.4
X5.05Y-2.5
X5.05Y-2.65
X5.05Y-2.75
X5.05Y-2.85
X5.05Y-3.
X5.05Y-4.1
X5.15Y-2.3
X5.15Y-2.5
X5.15Y-2.65
X5.15Y-2.75
X5.15Y-2.85
X5.15Y-4.1
X5.2Y-3.
X5.25Y-2.5
X5.25Y-2.65
X5.25Y-2.75
X5.25Y-2.85
X5.25Y-4.1
X5.3Y-2.3
X5.35Y-4.1
X5.4Y-2.3
T4
X3.45Y-3.25
X3.45Y-3.85
X3.55Y-3.25
X3.55Y-3.85
X3.65Y-3.25
X3.65Y-3.85
X3.75Y-3.25
X3.75Y-3.85
X3.85Y-3.25
X3.85Y-3.85
X3.95Y-3.25
X3.95Y-3.85
X4.05Y-3.25
X4.05Y-3.85
X4.15Y-3.25
X4.15Y-3.85
X4.25Y-3.25
X4.25Y-3.85
X4.35Y-3.25
X4.35Y-3.85
X4.45Y-3.25
X4.45Y-3.85
X4.55Y-3.25
X4.55Y-3.85
X4.65Y-3.25
X4.65Y-3.85
X4.75Y-3.25
X4.75Y-3.85
X4.85Y-3.25
X4.85Y-3.85
X4.95Y-3.25
X4.95Y-3.85
X5.05Y-3.25
X5.05Y-3.85
X5.15Y-3.25
X5.15Y-3.85
X5.25Y-3.25
X5.25Y-3.85
X5.35Y-3.25
X5.35Y-3.85
T0
M30
